HIERARCHY
ROOT Hips
{
	OFFSET 0.000000 0.000000 0.000000
	CHANNELS 6 Xposition Yposition Zposition Zrotation Yrotation Xrotation 
	JOINT LHipJoint
	{
		OFFSET 0.000000 0.000000 0.000000
		CHANNELS 3 Zrotation Yrotation Xrotation
		JOINT LeftUpLeg
		{
			OFFSET 1.363060 -1.794630 0.839290
			CHANNELS 3 Zrotation Yrotation Xrotation
			JOINT LeftLeg
			{
				OFFSET 2.448110 -6.726130 0.000000
				CHANNELS 3 Zrotation Yrotation Xrotation
				JOINT LeftFoot
				{
					OFFSET 2.562200 -7.039590 0.000000
					CHANNELS 3 Zrotation Yrotation Xrotation
					JOINT LeftToeBase
					{
						OFFSET 0.157640 -0.433110 2.322550
						CHANNELS 3 Zrotation Yrotation Xrotation
						End Site
						{
							OFFSET 0.000000 0.000000 0.000000
						}
					}
				}
			}
		}
	}
	JOINT RHipJoint
	{
		OFFSET 0.000000 0.000000 0.000000
		CHANNELS 3 Zrotation Yrotation Xrotation
		JOINT RightUpLeg
		{
			OFFSET -1.305520 -1.794630 0.839290
			CHANNELS 3 Zrotation Yrotation Xrotation
			JOINT RightLeg
			{
				OFFSET -2.542530 -6.985550 0.000000
				CHANNELS 3 Zrotation Yrotation Xrotation
				JOINT RightFoot
				{
					OFFSET -2.568260 -7.056230 0.000000
					CHANNELS 3 Zrotation Yrotation Xrotation
					JOINT RightToeBase
					{
						OFFSET -0.164730 -0.452590 2.363150
						CHANNELS 3 Zrotation Yrotation Xrotation
						End Site
						{
							OFFSET 0.000000 0.000000 0.000000
						}
					}
				}
			}
		}
	}
}
MOTION
Frames: 34
Frame Time: 0.008333
5.622262 16.896731 0.881725 21.511014 -86.717615 -7.559998 -9.583359 1.202218 3.447021 -11.020620 -5.166153 -44.899746 -0.392995 2.601430 51.554206 2.955157 14.854484 -11.873958 -0.747400 -0.000000 -27.118000 9.316283 -1.241483 2.491049 9.775432 2.390610 -15.354826 2.058555 0.057136 21.961557 -2.257383 -5.732724 -19.081282 1.424599 -0.000000 -52.199800
5.513305 16.921229 0.856969 22.139342 -86.647753 -8.015731 -9.436715 1.218141 3.534166 -11.433938 -5.112923 -45.205286 -0.556803 2.455545 49.183716 2.963714 14.684537 -11.518711 -0.609700 -0.000000 -28.145100 9.318124 -1.303034 2.462166 9.803895 1.993590 -14.284948 2.126806 0.240591 20.023927 -2.147858 -5.397441 -18.426634 1.286600 0.000000 -52.439099
5.405433 16.940124 0.833048 22.773176 -86.585672 -8.499468 -9.290530 1.233062 3.611505 -11.863114 -5.049971 -45.448587 -0.724458 2.298867 46.716783 2.984455 14.589271 -11.156698 -0.470500 -0.000001 -28.876499 9.322218 -1.359192 2.419096 9.826167 1.599386 -13.201560 2.190852 0.417758 18.147383 -2.042246 -5.073911 -17.821604 1.164000 -0.000000 -52.606600
5.298185 16.953127 0.810293 23.315627 -86.532954 -8.904931 -9.150399 1.244560 3.683315 -12.293926 -4.976510 -45.648640 -0.896647 2.131535 44.181094 3.009956 14.522871 -10.812967 -0.334900 -0.000000 -29.323800 9.322572 -1.412158 2.367757 9.852932 1.224149 -12.122110 2.251308 0.587831 16.349396 -1.943872 -4.768241 -17.283734 1.058800 0.000001 -52.676300
5.191032 16.960195 0.788751 23.722694 -86.489067 -9.180937 -9.019622 1.252450 3.753561 -12.719004 -4.891723 -45.819021 -1.074625 1.953612 41.597766 3.031265 14.436340 -10.496800 -0.205400 -0.000000 -29.547000 9.316741 -1.463269 2.311294 9.889424 0.868189 -11.061814 2.309283 0.750313 14.644167 -1.852840 -4.473912 -16.824173 0.970600 0.000000 -52.653800
5.083387 16.961371 0.768630 23.920859 -86.452977 -9.247792 -8.902609 1.256317 3.826188 -13.130307 -4.791647 -45.976031 -1.259247 1.765488 38.986385 3.038276 14.280430 -10.201845 -0.082100 0.000000 -29.642600 9.301266 -1.514802 2.252936 9.943538 0.529047 -10.032257 2.366659 0.905406 13.037346 -1.768045 -4.181890 -16.444869 0.897400 -0.000000 -52.551200
4.974829 16.956897 0.750076 23.818797 -86.423995 -9.008897 -8.804327 1.255523 3.904690 -13.519767 -4.670592 -46.138793 -1.450654 1.568145 36.366092 3.021170 14.013484 -9.907201 0.037800 0.000000 -29.732500 9.272073 -1.569323 2.196712 10.025215 0.206642 -9.042270 2.425490 1.054087 11.524853 -1.687955 -3.885251 -16.137316 0.836300 0.000000 -52.394600
4.865191 16.947153 0.732751 23.540628 -86.396172 -8.604771 -8.720332 1.254693 3.985673 -13.904131 -4.524342 -46.279413 -1.651461 1.361429 33.734527 2.972017 13.611625 -9.587993 0.156300 0.000000 -29.916100 9.239759 -1.625108 2.129642 10.116061 -0.162945 -8.077514 2.488071 1.195278 10.104054 -1.600997 -3.530933 -15.885125 0.779500 0.000000 -52.262200
4.753910 16.932491 0.717123 22.880127 -86.371514 -7.813964 -8.660019 1.249654 4.073468 -14.264827 -4.345402 -46.437361 -1.858909 1.148036 31.122305 2.884521 13.055107 -9.214209 0.277000 0.000000 -30.304000 9.193542 -1.687427 2.063414 10.239503 -0.549550 -7.147018 2.556196 1.331784 8.752858 -1.509711 -3.137050 -15.665047 0.725200 -0.000000 -52.164500
4.640861 16.913368 0.703150 21.865300 -86.347496 -6.671686 -8.622213 1.241214 4.165561 -14.607945 -4.131169 -46.604958 -2.072534 0.929470 28.540490 2.756502 12.346161 -8.766042 0.399300 0.000000 -30.945600 9.137830 -1.756407 1.993336 10.388824 -0.981023 -6.239773 2.631074 1.463856 7.456877 -1.408244 -2.681031 -15.453249 0.668300 -0.000000 -52.150400
4.526099 16.890223 0.690790 20.510508 -86.323641 -5.196417 -8.605804 1.228559 4.259893 -14.934244 -3.883126 -46.781700 -2.290413 0.707694 26.005141 2.589695 11.500400 -8.233986 0.519600 -0.000000 -31.850000 9.075307 -1.832114 1.917946 10.560044 -1.467539 -5.347329 2.712787 1.591888 6.201333 -1.294033 -2.155491 -15.227841 0.605801 0.000000 -52.250600
4.409699 16.863516 0.679939 18.840622 -86.300787 -3.412514 -8.608713 1.210436 4.355961 -15.241419 -3.609510 -46.972881 -2.509496 0.484839 23.535686 2.389890 10.545413 -7.621219 0.632200 -0.000000 -32.989100 9.007889 -1.914050 1.839522 10.749686 -2.000822 -4.467507 2.799980 1.716282 4.976808 -1.168316 -1.568619 -14.976490 0.537600 -0.000000 -52.463800
4.292051 16.833658 0.670521 16.933086 -86.278588 -1.411395 -8.626267 1.185808 4.447739 -15.530344 -3.316115 -47.155385 -2.726788 0.262537 21.147517 2.164974 9.512451 -6.952283 0.727300 -0.000000 -34.288800 8.942063 -2.000334 1.747501 10.944014 -2.614573 -3.583403 2.892292 1.835167 3.781020 -1.027185 -0.902314 -14.682539 0.461600 -0.000000 -52.861800
4.172980 16.801058 0.662391 14.807853 -86.262010 0.804626 -8.656028 1.152525 4.540424 -15.786995 -3.025655 -47.354397 -2.937169 0.042552 18.863126 1.926532 8.442454 -6.251558 0.800100 0.000000 -35.685300 8.875453 -2.089929 1.654835 11.145784 -3.249606 -2.711773 2.985537 1.949393 2.619107 -0.881450 -0.204773 -14.361299 0.384199 -0.000000 -53.343400
4.052753 16.766078 0.655405 12.537095 -86.253671 3.161749 -8.693390 1.109426 4.633504 -16.002323 -2.755666 -47.562246 -3.136243 -0.173999 16.697836 1.685585 7.372736 -5.557175 0.845400 0.000000 -37.097900 8.810589 -2.180391 1.559912 11.346991 -3.897008 -1.853621 3.077220 2.057350 1.504317 -0.734981 0.509016 -14.023031 0.308300 0.000000 -53.898300
3.931412 16.729159 0.649283 10.187672 -86.257455 5.601806 -8.734395 1.055936 4.730716 -16.163321 -2.529063 -47.784160 -3.319531 -0.386289 14.665766 1.453092 6.340861 -4.904885 0.863301 -0.000000 -38.457700 8.747475 -2.269381 1.468065 11.544177 -4.520527 -1.024143 3.163983 2.157951 0.459334 -0.595789 1.205702 -13.695917 0.238500 0.000000 -54.447700
3.809220 16.690741 0.644001 7.777716 -86.272121 8.097681 -8.777322 0.990614 4.828012 -16.257471 -2.353050 -47.999135 -3.482501 -0.592341 12.783385 1.236198 5.368545 -4.333480 0.854199 -0.000000 -39.715100 8.686673 -2.355619 1.371576 11.732765 -5.130791 -0.215210 3.245019 2.248628 -0.501674 -0.465075 1.878516 -13.384318 0.175100 -0.000001 -55.055600
3.685770 16.651303 0.639119 5.400943 -86.302505 10.574258 -8.818388 0.915959 4.934031 -16.276391 -2.250839 -48.224909 -3.622935 -0.791437 11.060036 1.042539 4.485232 -3.863609 0.825399 -0.000000 -40.828500 8.627417 -2.437270 1.283487 11.911082 -5.670234 0.538174 3.316941 2.328521 -1.340320 -0.352696 2.485949 -13.138265 0.122100 -0.000001 -55.549000
3.561249 16.611384 0.634746 3.018312 -86.341954 13.055838 -8.858845 0.831281 5.041001 -16.213513 -2.213391 -48.437315 -3.738036 -0.979350 9.518500 0.873272 3.690505 -3.518664 0.780100 -0.000000 -41.784700 8.568705 -2.515139 1.194292 12.079759 -6.161740 1.252193 3.380683 2.395004 -2.050545 -0.256883 3.028732 -12.948557 0.077200 0.000000 -56.028700
3.435140 16.571534 0.630530 0.712760 -86.390921 15.467809 -8.896166 0.741250 5.152268 -16.074051 -2.245069 -48.642476 -3.828603 -1.153404 8.171197 0.730022 2.992136 -3.300816 0.725600 0.000001 -42.575200 8.511829 -2.589026 1.110869 12.234364 -6.582248 1.902695 3.435334 2.446362 -2.600526 -0.180824 3.493369 -12.843762 0.040400 -0.000000 -56.400900
3.307208 16.532379 0.626441 -1.515438 -86.443943 17.803214 -8.930794 0.648847 5.263205 -15.866832 -2.332725 -48.832947 -3.895705 -1.308657 7.039584 0.610756 2.380767 -3.207153 0.665800 0.000000 -43.211000 8.456945 -2.660508 1.031938 12.375263 -6.938411 2.491773 3.481755 2.480715 -2.982165 -0.123070 3.880220 -12.817593 0.009901 0.000000 -56.686200
3.177240 16.494561 0.622483 -3.649071 -86.496244 20.037984 -8.962924 0.558181 5.369283 -15.606557 -2.461624 -49.002151 -3.941476 -1.440130 6.141917 0.512658 1.845783 -3.223451 0.604100 0.000000 -43.712000 8.405156 -2.731167 0.957152 12.500335 -7.237522 3.022074 3.520780 2.496326 -3.191776 -0.081003 4.194532 -12.854762 -0.015700 -0.000000 -56.923001
3.044605 16.458641 0.618686 -5.669919 -86.543940 22.153931 -8.992940 0.473826 5.467619 -15.310014 -2.618387 -49.148415 -3.968739 -1.543617 5.491403 0.432787 1.378248 -3.327022 0.543600 0.000000 -44.102000 8.357530 -2.803141 0.888768 12.609319 -7.481219 3.494970 3.553092 2.492259 -3.232169 -0.052104 4.439910 -12.934978 -0.037100 0.000000 -57.134199
2.909060 16.425203 0.615171 -7.570172 -86.583779 24.137596 -9.021588 0.399399 5.555407 -14.993181 -2.791621 -49.268779 -3.979603 -1.615658 5.094341 0.368605 0.973749 -3.488544 0.487300 -0.000000 -44.404300 8.314962 -2.878124 0.828117 12.701570 -7.673415 3.915602 3.579312 2.467719 -3.112853 -0.032939 4.623075 -13.028748 -0.054600 0.000001 -57.367600
2.770085 16.394771 0.612055 -9.327831 -86.615019 25.968192 -9.049608 0.338517 5.632002 -14.669549 -2.973997 -49.360930 -3.975705 -1.654577 4.945906 0.318456 0.634810 -3.673779 0.438100 0.000001 -44.636000 8.278725 -2.957710 0.777950 12.775368 -7.814506 4.287158 3.599588 2.422509 -2.846442 -0.020165 4.750412 -13.104900 -0.068300 0.000000 -57.674600
2.627472 16.367773 0.609583 -10.935221 -86.635557 27.631785 -9.078340 0.293081 5.695869 -14.348756 -3.159416 -49.416836 -3.957257 -1.659598 5.034597 0.280892 0.365197 -3.849533 0.397901 -0.000000 -44.807700 8.249858 -3.043170 0.736379 12.827909 -7.921292 4.619948 3.614600 2.356474 -2.450713 -0.008738 4.838504 -13.126304 -0.078800 0.000000 -58.105800
2.480706 16.344569 0.607840 -12.358358 -86.647513 29.098628 -9.108338 0.265129 5.749460 -14.037932 -3.348274 -49.435827 -3.924451 -1.632416 5.336067 0.255543 0.175562 -3.981067 0.369100 0.000000 -44.916800 8.229643 -3.135242 0.705887 12.855722 -7.994751 4.914516 3.623831 2.270197 -1.939926 0.004199 4.894707 -13.066117 -0.086100 -0.000000 -58.703000
2.329569 16.325455 0.606925 -13.551489 -86.652972 30.321648 -9.139948 0.255648 5.794327 -13.743082 -3.541284 -49.412324 -3.876914 -1.575748 5.820016 0.242019 0.074664 -4.038658 0.353299 -0.000000 -44.951100 8.219591 -3.233805 0.685531 12.852036 -8.046422 5.175167 3.626659 2.164292 -1.329022 0.022066 4.932131 -12.898509 -0.090599 0.000000 -59.498200
2.173739 16.310606 0.606956 -14.500797 -86.655004 31.294560 -9.173408 0.264611 5.836474 -13.463966 -3.744537 -49.354860 -3.814517 -1.494345 6.449493 0.240267 0.070957 -3.997917 0.352000 -0.000000 -44.890500 8.219813 -3.339020 0.679415 12.816598 -8.070041 5.393133 3.622036 2.040179 -0.628783 0.045493 4.951432 -12.609597 -0.091700 -0.000000 -60.532100
2.012966 16.300217 0.607715 -15.066519 -86.658050 31.875777 -9.206886 0.293470 5.877283 -13.210248 -3.961401 -49.252411 -3.738191 -1.392977 7.185190 0.249583 0.164397 -3.845771 0.365900 0.000000 -44.708700 8.233501 -3.448596 0.682131 12.732882 -8.091022 5.574566 3.608210 1.898868 0.151384 0.077243 4.970568 -12.186307 -0.090500 -0.000000 -61.796800
1.847288 16.294352 0.609127 -15.185396 -86.666339 32.007115 -9.238995 0.341711 5.922683 -12.982340 -4.200497 -49.112883 -3.649135 -1.277733 7.986421 0.269766 0.354421 -3.576921 0.396299 -0.000000 -44.380100 8.260844 -3.560580 0.695591 12.597348 -8.104282 5.709090 3.583145 1.742183 1.007352 0.116151 4.987746 -11.629789 -0.085699 0.000000 -63.307900
1.676526 16.293009 0.611138 -14.841480 -86.679027 31.682690 -9.268878 0.407935 5.977337 -12.779082 -4.465991 -48.948908 -3.549619 -1.154083 8.821766 0.299377 0.628015 -3.199963 0.443400 0.000000 -43.886200 8.300160 -3.673870 0.722654 12.415524 -8.097691 5.789577 3.544744 1.572558 1.931691 0.159253 4.989942 -10.942869 -0.075800 0.000001 -65.039600
1.500910 16.296244 0.612855 -13.655435 -86.711305 30.511727 -9.288909 0.498417 6.043501 -12.624942 -4.769185 -48.738092 -3.444773 -1.027537 9.647258 0.338545 0.978642 -2.730126 0.507900 0.000000 -43.214701 8.360072 -3.780648 0.751111 12.144798 -8.121250 5.812614 3.489302 1.390172 2.943547 0.210163 5.016214 -10.135198 -0.062200 0.000001 -66.976100
1.320658 16.303844 0.614497 -11.775152 -86.753895 28.655219 -9.299322 0.608937 6.124350 -12.508014 -5.107581 -48.507189 -3.337521 -0.901843 10.450392 0.384755 1.380348 -2.197454 0.587800 -0.000000 -42.379900 8.434772 -3.880728 0.788484 11.814185 -8.134230 5.769177 3.414897 1.198311 4.034956 0.262152 5.029981 -9.216127 -0.041800 0.000000 -69.077700
